<?xml version="1.0" encoding="utf-8" ?>	<!-- Generator: Assembly 2.4 - http://assemblyapp.co -->	<svg version="1.1" xmlns="http://www.w3.org/2000/svg" xmlns:xlink="http://www.w3.org/1999/xlink" width="2048.00" height="1890.00" viewBox="0 0 2048.0 1890.0">		<g id="document" transform="scale(1.2970234325522483 1.2970234325522483) translate(789.5 728.5)">			<defs>				<filter id="4EfxfB39" x="0.00%" y="0.00%" width="101.97%" height="100.47%" filterUnits="objectBoundingBox">					<feOffset dx="75.10" dy="15.93" in="SourceAlpha" result="shadowOffsetOuter1" />					<feGaussianBlur stdDeviation="0.00" in="shadowOffsetOuter1" result="shadowBlurOuter1" />					<feFlood flood-color="#000000" flood-opacity="0.35" />					<feComposite in2="shadowBlurOuter1" operator="in" />					<feMerge>						<feMergeNode />						<feMergeNode in="SourceGraphic" />					</feMerge>				</filter>			</defs>			<path d="M-479.869,764.055 L-411.804,944.093 L-324.871,1210.38 L-229.549,1500.96 L-115.619,1888.75 L-359.288,1884.09 L-413.723,1790.32 L-497.444,1647.44 L-560.636,1546.07 L-618.697,1442.74 L-648.421,1409.12 L-665.345,1407.76 C-665.345,1407.76 -688.774,1474.21 -727.861,1550.97 C-806.034,1704.47 -881.319,1877.54 -881.319,1877.54 L-1148.81,1877.76 L-1090.17,1621.98 L-940.268,1182.92 L-877.84,1008.16 L-830.208,861.88 L-846.924,693.821 L-858.875,611.394 L-914.763,482.909 L-968.907,395.155 L-1045.44,332.912 L-1191.69,236.77 C-1191.69,236.77 -1386.9,152.505 -1528.73,88.6402 C-1656.16,31.2616 -1781.56,-24.148 -1805.72,-34.8112 C-1808.45,-36.0166 -1835.84,-25.364 -1835.84,-25.364 L-1895.79,-98.1116 L-1922.55,-154.607 L-1929.78,-201.51 L-1918.87,-209.97 L-1776.09,-119.112 L-1543.98,-46.1536 L-1528.99,-62.2524 L-1329.78,-44.6026 L-1132.2,-33.7177 L-765.683,-12.9638 L-731.603,-81.1988 L-722.727,-93.8968 L-703.441,-116.023 L-693.963,-174.721 L-682.307,-226.371 C-682.307,-226.371 -674.677,-244.776 -662.493,-262.789 C-650.308,-280.801 -633.569,-298.421 -606.338,-303.844 C-579.108,-309.266 -544.513,-298.712 -544.513,-298.712 C-544.513,-298.712 -509.661,-286.845 -491.534,-268.984 C-473.406,-251.123 -474.561,-224.974 -477.61,-191.039 C-480.659,-157.103 -485.602,-115.381 -485.602,-115.381 L-439.812,-101.576 L-410.027,-108.101 L-139.92,-530.917 L-164.402,-740.936 L-187.787,-834.891 L-163.442,-1027.33 L-179.392,-1026.35 L-161.249,-1230.26 L-87.8973,-1268.18 L-84.8085,-1055.23 L-73.6367,-917.33 L-32.1714,-742.725 L73.3936,-962.17 L118.673,-1088.77 L124.163,-1150.27 C124.163,-1150.27 103.697,-1177.69 92.2311,-1198.92 C80.7654,-1220.16 78.9546,-1236.5 79.2752,-1275.06 C79.5957,-1313.62 86.9699,-1355.11 102.963,-1385.88 C118.955,-1416.65 113.145,-1411.22 135.157,-1436.49 C157.168,-1461.77 191.007,-1486.97 234.009,-1491.92 C277.012,-1496.87 310.043,-1473.45 330.068,-1458.91 C350.093,-1444.37 357.111,-1438.7 375.983,-1404.16 C394.856,-1369.62 388.544,-1329.26 388.544,-1329.26 L389.988,-1271.08 L359.362,-1192.05 L312.432,-1134.62 L226.365,-1097.39 L186.408,-1017.22 L150.264,-869.941 L108.019,-731.05 L35.6813,-516.306 L86.999,-374.785 L155.469,-206.281 L229.059,-55.0278 L234.422,-116.752 C234.422,-116.752 241.968,-165.94 250.428,-189.224 C258.889,-212.508 274.541,-227.983 294.375,-246.1 C314.21,-264.216 335.307,-280.156 369.721,-278.95 C404.135,-277.745 434.725,-267.686 455.295,-240.17 C475.866,-212.655 480.691,-182.243 481.247,-147.742 C481.802,-113.241 475.872,-77.2344 475.872,-77.2344 L557.916,-70.1328 L638.25,-79.2711 L819.532,-99.1465 L922.689,-101.835 L971.912,-80.979 L1008.51,-64.0568 L1279.63,-110.621 L1371.66,-136.567 L1455.37,-160.919 C1455.37,-160.919 1454.7,-211.814 1458.15,-251.512 C1461.59,-291.21 1469.16,-319.711 1487.41,-360.191 C1505.66,-400.672 1532.13,-432.749 1563.54,-454.877 C1594.94,-477.006 1622.94,-488.324 1660.66,-489.873 C1698.38,-491.422 1726.81,-491.776 1762.87,-465.947 C1798.94,-440.118 1832.16,-404.385 1832.16,-404.385 C1832.16,-404.385 1859.93,-352.663 1863.16,-303.022 C1866.4,-253.381 1862.87,-226.236 1855,-203.344 C1847.12,-180.452 1838.86,-157.85 1823.03,-131.386 C1807.21,-104.922 1789.72,-82.6308 1762.63,-59.1764 C1735.54,-35.7217 1713.69,-28.1584 1675.07,-19.3046 C1636.45,-10.4507 1599.23,-16.8272 1599.23,-16.8272 L1482.98,-36.6675 L1301.48,15.5703 L1149.74,98.8691 L990.514,186.21 L818.028,264.383 L668.881,457.189 L525.957,678.658 L502.402,811.675 L536.99,817.518 L791.907,1467.93 L886.396,1711.39 L944.367,1895.22 L645.506,1880.89 L579.18,1743.72 L378.162,1446.58 L247.207,1666.69 L164.343,1886.83 L-117.216,1888.81 L-133.387,1810.71 L-82.8952,1598.49 L-1.18409,1318.15 L176.74,833.666 L151.649,591.608 L107.618,405.627 L48.3012,196.738 L23.4049,143.498 L-7.30822,34.4156 L-38.0213,-74.6666 L-79.4774,-222.44 L-143.971,-73.7751 L-125.727,-55.4039 L-131.611,-34.7869 L-161.689,-22.6548 L-259.506,184.638 L-426.332,532.519 L-451.252,643.072 L-479.869,764.055 Z " fill="#000000" fill-opacity="1.00" stroke-width="14.46" stroke="#ffffff" stroke-linecap="square" stroke-linejoin="miter" filter="url(#4EfxfB39)" />		</g>	</svg>